<svg width="1706" height="344" viewBox="0 0 1706 344" fill="none" xmlns="http://www.w3.org/2000/svg">
<path d="M737.2 1.04109C606.8 3.30776 475.6 9.17443 352 18.2411C332.533 19.7078 315.333 20.9078 313.6 20.9078C310.533 20.9078 310.533 21.0411 310.533 36.9078V52.9078H155.333H0L39.4667 113.841C61.2 147.441 79.2 175.841 79.4667 176.908C79.7333 177.974 62.2667 206.508 40.6667 240.241L1.33333 301.574L10.9333 302.374C16.2667 302.908 85.7333 303.308 165.6 303.441L310.533 303.574V312.641V321.841L330.933 323.308C631.333 346.241 936.4 349.174 1241.2 332.108C1274.67 330.374 1355.6 325.041 1384.13 322.774L1395.73 321.841L1396.13 312.374L1396.53 302.908L1550.93 302.508C1635.73 302.374 1705.2 301.841 1705.2 301.441C1705.2 301.041 1687.73 273.708 1666.4 240.641C1644.93 207.574 1627.33 179.574 1627.07 178.374C1626.8 177.174 1644.13 148.641 1665.87 114.908L1705.07 53.5744L1637.47 52.7744C1600.27 52.3744 1530.67 51.8411 1482.93 51.7078L1395.87 51.5744V36.3744V21.3078L1384.93 20.5078C1162.4 3.57443 952.133 -2.69224 737.2 1.04109Z" fill="black"/>
<g filter="url(#filter0_d_125_33)">
<path d="M618.568 136.96C622.28 137.408 625.544 139.136 628.36 142.144C631.24 145.152 632.68 149.376 632.68 154.816C632.68 160.192 630.536 164.416 626.248 167.488C622.024 170.496 615.816 172 607.624 172H581.32L581.032 168.64C583.72 167.552 586.472 166.784 589.288 166.336C588.904 141.632 588.584 123.104 588.328 110.752C586.152 110.368 583.336 109.6 579.88 108.448C580.072 106.08 580.232 104.864 580.36 104.8H604.456C613.032 104.8 618.856 105.536 621.928 107.008C623.4 107.712 624.872 108.64 626.344 109.792C629.288 112.096 630.76 115.904 630.76 121.216C630.76 123.904 630.28 126.336 629.32 128.512C628.424 130.624 627.24 132.256 625.768 133.408C623.08 135.52 620.68 136.704 618.568 136.96ZM608.104 141.088H597.448C597.32 146.592 597.192 154.72 597.064 165.472H607.24C617.864 165.472 623.176 161.504 623.176 153.568C623.176 148.96 621.928 145.728 619.432 143.872C617 142.016 613.224 141.088 608.104 141.088ZM603.496 111.52L597.736 111.616C597.608 117.504 597.544 125.152 597.544 134.56H606.952C612.584 134.56 616.328 133.504 618.184 131.392C620.104 129.216 621.064 125.792 621.064 121.12C621.064 114.72 615.208 111.52 603.496 111.52ZM690.173 156.928C690.365 157.312 690.621 158.784 690.941 161.344C691.325 163.904 691.517 166.08 691.517 167.872C691.517 169.6 691.421 170.976 691.229 172H645.629L645.341 168.64C648.349 167.552 651.069 166.816 653.501 166.432C653.117 141.216 652.797 122.624 652.541 110.656C650.877 110.4 648.061 109.632 644.093 108.352L644.573 104.8H667.709C668.797 106.592 669.341 108.48 669.341 110.464C665.885 110.592 663.389 110.688 661.853 110.752C661.725 123.04 661.597 134.24 661.469 144.352C661.405 154.4 661.341 161.472 661.277 165.568H682.301L684.605 156.448C687.805 156.448 689.661 156.608 690.173 156.928ZM709.737 106.816C710.889 106.432 714.025 106.016 719.145 105.568C724.265 105.056 728.905 104.8 733.065 104.8C737.289 104.8 740.553 104.992 742.857 105.376C742.921 105.632 742.953 105.952 742.953 106.336C742.953 106.656 742.761 107.456 742.377 108.736C742.057 110.016 741.801 110.848 741.609 111.232C741.097 111.744 739.657 112.128 737.289 112.384L755.625 165.472L764.745 166.24C764.745 168.032 764.201 169.952 763.113 172H741.033L740.745 168.64C742.217 167.872 744.361 167.2 747.177 166.624L742.281 152.896H715.497L710.985 165.472L718.761 166.24C718.761 168.032 718.217 169.952 717.129 172H695.049L694.761 168.64C697.257 167.744 699.913 167.04 702.729 166.528L721.353 112.096C715.657 111.456 711.657 110.688 709.353 109.792L709.737 106.816ZM734.697 131.488L729.609 112.672C729.225 112.608 728.681 112.576 727.977 112.576L722.793 132.16L717.225 146.752H740.553L734.697 131.488ZM795.394 173.248C776.578 173.248 767.17 161.44 767.17 137.824C767.17 126.624 769.442 118.112 773.986 112.288C778.594 106.464 785.922 103.552 795.97 103.552C804.034 103.552 811.202 105.792 817.474 110.272C817.474 113.856 817.026 118.4 816.13 123.904C815.234 124.096 813.378 124.192 810.562 124.192L807.682 112.288C803.138 111.456 799.49 111.04 796.738 111.04C791.682 111.04 787.234 111.744 783.394 113.152L781.57 113.824C781.186 114.464 780.706 115.424 780.13 116.704C779.554 117.92 778.786 120.512 777.826 124.48C776.93 128.448 776.482 132.512 776.482 136.672C776.482 145.696 777.954 152.864 780.898 158.176C783.906 163.488 788.674 166.144 795.202 166.144C799.874 166.144 803.394 165.664 805.762 164.704C806.402 164.384 807.33 163.904 808.546 163.264L810.562 151.744L816.13 152.032C817.09 158.624 817.57 163.968 817.57 168.064C816.226 169.088 813.314 170.208 808.834 171.424C804.418 172.64 799.938 173.248 795.394 173.248ZM842.321 151.36L842.033 165.472L850.097 166.24C850.097 168.032 849.553 169.952 848.465 172H826.385L826.097 168.64C829.105 167.616 832.049 166.848 834.929 166.336C834.289 141.504 833.777 122.88 833.393 110.464C831.025 110.016 828.177 109.248 824.849 108.16L825.137 104.8H849.137C850.225 106.848 850.769 108.768 850.769 110.56C847.569 110.816 845.009 110.944 843.089 110.944C842.961 117.6 842.833 123.616 842.705 128.992C842.641 134.368 842.577 138.144 842.513 140.32L865.457 111.328L857.777 110.56C857.777 108.768 858.321 106.848 859.409 104.8H883.793L884.081 109.024C881.137 110.048 878.257 110.816 875.441 111.328L856.529 134.08L878.609 165.472L886.673 166.24C886.673 168.032 886.129 169.952 885.041 172H873.041L851.249 140.608L842.321 151.36ZM898.038 164.992C899.766 165.632 902.038 165.952 904.854 165.952C907.67 165.952 909.878 165.152 911.478 163.552C913.142 161.888 913.974 158.944 913.974 154.72C913.974 150.432 913.91 145.888 913.781 141.088C913.654 136.288 913.462 130.848 913.206 124.768C912.95 118.624 912.758 113.856 912.63 110.464C910.71 110.208 907.894 109.44 904.182 108.16L904.47 104.8H928.47C929.558 106.848 930.102 108.768 930.102 110.56C929.334 110.816 926.774 110.944 922.422 110.944C922.294 116.64 922.134 124.736 921.942 135.232C921.814 145.728 921.718 152.64 921.654 155.968C921.526 161.408 920.214 165.664 917.718 168.736C915.286 171.744 911.702 173.248 906.966 173.248C903.51 173.248 899.958 172.768 896.31 171.808C892.662 170.848 890.198 169.888 888.918 168.928C888.982 164.064 889.494 158.816 890.454 153.184C891.478 152.736 893.366 152.512 896.118 152.512L898.038 164.992ZM948.425 106.816C949.577 106.432 952.713 106.016 957.833 105.568C962.953 105.056 967.593 104.8 971.753 104.8C975.977 104.8 979.241 104.992 981.545 105.376C981.609 105.632 981.641 105.952 981.641 106.336C981.641 106.656 981.449 107.456 981.065 108.736C980.745 110.016 980.489 110.848 980.297 111.232C979.785 111.744 978.345 112.128 975.977 112.384L994.313 165.472L1003.43 166.24C1003.43 168.032 1002.89 169.952 1001.8 172H979.721L979.433 168.64C980.905 167.872 983.049 167.2 985.865 166.624L980.969 152.896H954.185L949.673 165.472L957.449 166.24C957.449 168.032 956.905 169.952 955.817 172H933.737L933.449 168.64C935.945 167.744 938.601 167.04 941.417 166.528L960.041 112.096C954.345 111.456 950.345 110.688 948.041 109.792L948.425 106.816ZM973.385 131.488L968.297 112.672C967.913 112.608 967.369 112.576 966.665 112.576L961.481 132.16L955.913 146.752H979.241L973.385 131.488ZM1034.08 173.248C1015.27 173.248 1005.86 161.44 1005.86 137.824C1005.86 126.624 1008.13 118.112 1012.67 112.288C1017.28 106.464 1024.61 103.552 1034.66 103.552C1042.72 103.552 1049.89 105.792 1056.16 110.272C1056.16 113.856 1055.71 118.4 1054.82 123.904C1053.92 124.096 1052.07 124.192 1049.25 124.192L1046.37 112.288C1041.83 111.456 1038.18 111.04 1035.43 111.04C1030.37 111.04 1025.92 111.744 1022.08 113.152L1020.26 113.824C1019.87 114.464 1019.39 115.424 1018.82 116.704C1018.24 117.92 1017.47 120.512 1016.51 124.48C1015.62 128.448 1015.17 132.512 1015.17 136.672C1015.17 145.696 1016.64 152.864 1019.59 158.176C1022.59 163.488 1027.36 166.144 1033.89 166.144C1038.56 166.144 1042.08 165.664 1044.45 164.704C1045.09 164.384 1046.02 163.904 1047.23 163.264L1049.25 151.744L1054.82 152.032C1055.78 158.624 1056.26 163.968 1056.26 168.064C1054.91 169.088 1052 170.208 1047.52 171.424C1043.11 172.64 1038.63 173.248 1034.08 173.248ZM1081.01 151.36L1080.72 165.472L1088.78 166.24C1088.78 168.032 1088.24 169.952 1087.15 172H1065.07L1064.78 168.64C1067.79 167.616 1070.74 166.848 1073.62 166.336C1072.98 141.504 1072.46 122.88 1072.08 110.464C1069.71 110.016 1066.86 109.248 1063.54 108.16L1063.82 104.8H1087.82C1088.91 106.848 1089.46 108.768 1089.46 110.56C1086.26 110.816 1083.7 110.944 1081.78 110.944C1081.65 117.6 1081.52 123.616 1081.39 128.992C1081.33 134.368 1081.26 138.144 1081.2 140.32L1104.14 111.328L1096.46 110.56C1096.46 108.768 1097.01 106.848 1098.1 104.8H1122.48L1122.77 109.024C1119.82 110.048 1116.94 110.816 1114.13 111.328L1095.22 134.08L1117.3 165.472L1125.36 166.24C1125.36 168.032 1124.82 169.952 1123.73 172H1111.73L1089.94 140.608L1081.01 151.36Z" fill="#FCFCFC"/>
</g>
<g filter="url(#filter1_d_125_33)">
<path d="M671.909 258.464C671.973 258.976 672.005 259.408 672.005 259.76L671.909 261.44C670.245 261.6 668.677 261.68 667.205 261.68L660.773 261.44C660.709 261.216 660.677 260.8 660.677 260.192L660.773 258.464C662.437 258.304 664.005 258.224 665.477 258.224L671.909 258.464ZM723.169 241.712L728.209 268.736L732.577 269.168C732.577 270.032 732.305 270.976 731.761 272H720.721L720.577 270.32C721.537 269.904 722.721 269.568 724.129 269.312L718.993 242.384L712.657 269.696H707.905L699.169 242.288L695.281 268.736L699.361 269.12C699.361 270.016 699.089 270.976 698.545 272H687.505L687.361 270.32C688.769 269.808 690.177 269.424 691.585 269.168L695.809 241.328C693.857 241.04 692.305 240.704 691.153 240.32L691.345 238.4H702.529L710.161 264.704H710.353L716.305 238.4H727.009C727.553 239.424 727.825 240.416 727.825 241.376C725.745 241.6 724.193 241.712 723.169 241.712ZM741.009 239.408C741.585 239.216 743.153 239.008 745.713 238.784C748.273 238.528 750.593 238.4 752.673 238.4C754.785 238.4 756.417 238.496 757.569 238.688C757.601 238.816 757.617 238.976 757.617 239.168C757.617 239.328 757.521 239.728 757.329 240.368C757.169 241.008 757.041 241.424 756.945 241.616C756.689 241.872 755.969 242.064 754.785 242.192L763.953 268.736L768.513 269.12C768.513 270.016 768.241 270.976 767.697 272H756.657L756.513 270.32C757.249 269.936 758.321 269.6 759.729 269.312L757.281 262.448H743.889L741.633 268.736L745.521 269.12C745.521 270.016 745.249 270.976 744.705 272H733.665L733.521 270.32C734.769 269.872 736.097 269.52 737.505 269.264L746.817 242.048C743.969 241.728 741.969 241.344 740.817 240.896L741.009 239.408ZM753.489 251.744L750.945 242.336C750.753 242.304 750.481 242.288 750.129 242.288L747.537 252.08L744.753 259.376H756.417L753.489 251.744ZM798.862 254.432C798.862 261.664 797.214 266.576 793.918 269.168C792.542 270.256 791.054 271.008 789.454 271.424C787.854 271.808 785.758 272 783.166 272H770.974L770.83 270.32C770.958 270.224 771.614 270.016 772.798 269.696C773.982 269.376 774.686 269.216 774.91 269.216C774.718 256.736 774.558 247.456 774.43 241.376C772.99 241.184 771.582 240.8 770.206 240.224C770.27 239.136 770.35 238.528 770.446 238.4H782.542C785.87 238.4 788.494 238.704 790.414 239.312C792.366 239.92 794.062 241.04 795.502 242.672C797.742 245.136 798.862 249.056 798.862 254.432ZM794.206 254.816C794.206 250.496 793.39 247.248 791.758 245.072C790.158 242.864 787.454 241.76 783.646 241.76H778.75C778.622 247.648 778.462 256.64 778.27 268.736H783.31C787.694 268.736 790.606 267.76 792.046 265.808C793.486 263.824 794.206 260.16 794.206 254.816ZM811.245 241.712L811.005 253.28H818.589L818.973 249.824C819.869 249.824 820.829 250.096 821.853 250.64V259.76L820.173 259.904C819.693 258.528 819.373 257.376 819.213 256.448H811.005C810.941 259.232 810.877 263.344 810.813 268.784H821.805L822.957 264.272L825.741 264.464C826.189 266.288 826.413 267.904 826.413 269.312C826.413 270.688 826.381 271.584 826.317 272H802.989L802.845 270.32C804.253 269.808 805.613 269.44 806.925 269.216C806.733 256.736 806.573 247.456 806.445 241.376C805.741 241.312 804.333 240.928 802.221 240.224L802.461 238.4H825.597C825.661 238.816 825.693 239.456 825.693 240.32C825.693 242.08 825.469 243.984 825.021 246.032C824.317 246.192 823.389 246.272 822.237 246.272L821.085 241.712H811.245ZM862.581 254.48C864.437 254.704 866.069 255.568 867.477 257.072C868.917 258.576 869.637 260.688 869.637 263.408C869.637 266.096 868.565 268.208 866.421 269.744C864.309 271.248 861.205 272 857.109 272H843.957L843.813 270.32C845.157 269.776 846.533 269.392 847.941 269.168C847.749 256.816 847.589 247.552 847.461 241.376C846.373 241.184 844.965 240.8 843.237 240.224C843.333 239.04 843.413 238.432 843.477 238.4H855.525C859.813 238.4 862.725 238.768 864.261 239.504C864.997 239.856 865.733 240.32 866.469 240.896C867.941 242.048 868.677 243.952 868.677 246.608C868.677 247.952 868.437 249.168 867.957 250.256C867.509 251.312 866.917 252.128 866.181 252.704C864.837 253.76 863.637 254.352 862.581 254.48ZM857.349 256.544H852.021C851.957 259.296 851.893 263.36 851.829 268.736H856.917C862.229 268.736 864.885 266.752 864.885 262.784C864.885 260.48 864.261 258.864 863.013 257.936C861.797 257.008 859.909 256.544 857.349 256.544ZM855.045 241.76L852.165 241.808C852.101 244.752 852.069 248.576 852.069 253.28H856.773C859.589 253.28 861.461 252.752 862.389 251.696C863.349 250.608 863.829 248.896 863.829 246.56C863.829 243.36 860.901 241.76 855.045 241.76ZM890.655 260L890.463 268.736L894.495 269.12C894.495 270.08 894.239 271.04 893.727 272H882.639L882.495 270.32C884.447 269.648 885.919 269.264 886.911 269.168C886.879 267.184 886.799 264.128 886.671 260L876.591 241.232C875.311 240.976 873.871 240.592 872.271 240.08L872.415 238.4H884.895C885.439 239.424 885.711 240.384 885.711 241.28C884.143 241.376 882.703 241.472 881.391 241.568L888.543 256.112H889.071L896.223 241.232C894.943 241.04 893.439 240.656 891.711 240.08L891.855 238.4H903.471C904.015 239.424 904.287 240.384 904.287 241.28C902.879 241.376 901.519 241.472 900.207 241.568L890.655 260ZM921.784 268.496C922.648 268.816 923.784 268.976 925.192 268.976C926.6 268.976 927.704 268.576 928.504 267.776C929.336 266.944 929.752 265.472 929.752 263.36C929.752 261.216 929.72 258.944 929.656 256.544C929.592 254.144 929.496 251.424 929.368 248.384C929.24 245.312 929.144 242.928 929.08 241.232C928.12 241.104 926.712 240.72 924.856 240.08L925 238.4H937C937.544 239.424 937.816 240.384 937.816 241.28C937.432 241.408 936.152 241.472 933.976 241.472C933.912 244.32 933.832 248.368 933.736 253.616C933.672 258.864 933.624 262.32 933.592 263.984C933.528 266.704 932.872 268.832 931.624 270.368C930.408 271.872 928.616 272.624 926.248 272.624C924.52 272.624 922.744 272.384 920.92 271.904C919.096 271.424 917.864 270.944 917.224 270.464C917.256 268.032 917.512 265.408 917.992 262.592C918.504 262.368 919.448 262.256 920.824 262.256L921.784 268.496ZM975.634 266.96L981.97 241.232C980.69 240.976 979.25 240.592 977.65 240.08L977.794 238.4H989.794C990.338 239.424 990.61 240.384 990.61 241.28C988.85 241.376 987.314 241.472 986.002 241.568L977.65 272H973.138L964.882 243.824L957.394 272H952.402L943.81 241.232C942.53 240.976 941.09 240.592 939.49 240.08L939.634 238.4H952.114C952.658 239.424 952.93 240.384 952.93 241.28C951.362 241.376 949.922 241.472 948.61 241.568L954.706 266.96H954.898C955.922 262.544 957.298 257.216 959.026 250.976C960.786 244.736 961.954 240.56 962.53 238.448H967.714L975.442 266.96H975.634Z" fill="#FCFCFC"/>
</g>
<defs>
<filter id="filter0_d_125_33" x="575.88" y="103.552" width="553.48" height="77.696" filterUnits="userSpaceOnUse" color-interpolation-filters="sRGB">
<feFlood flood-opacity="0" result="BackgroundImageFix"/>
<feColorMatrix in="SourceAlpha" type="matrix" values="0 0 0 0 0 0 0 0 0 0 0 0 0 0 0 0 0 0 127 0" result="hardAlpha"/>
<feOffset dy="4"/>
<feGaussianBlur stdDeviation="2"/>
<feComposite in2="hardAlpha" operator="out"/>
<feColorMatrix type="matrix" values="0 0 0 0 0 0 0 0 0 0 0 0 0 0 0 0 0 0 0.25 0"/>
<feBlend mode="normal" in2="BackgroundImageFix" result="effect1_dropShadow_125_33"/>
<feBlend mode="normal" in="SourceGraphic" in2="effect1_dropShadow_125_33" result="shape"/>
</filter>
<filter id="filter1_d_125_33" x="656.677" y="238.4" width="337.933" height="42.224" filterUnits="userSpaceOnUse" color-interpolation-filters="sRGB">
<feFlood flood-opacity="0" result="BackgroundImageFix"/>
<feColorMatrix in="SourceAlpha" type="matrix" values="0 0 0 0 0 0 0 0 0 0 0 0 0 0 0 0 0 0 127 0" result="hardAlpha"/>
<feOffset dy="4"/>
<feGaussianBlur stdDeviation="2"/>
<feComposite in2="hardAlpha" operator="out"/>
<feColorMatrix type="matrix" values="0 0 0 0 0 0 0 0 0 0 0 0 0 0 0 0 0 0 0.25 0"/>
<feBlend mode="normal" in2="BackgroundImageFix" result="effect1_dropShadow_125_33"/>
<feBlend mode="normal" in="SourceGraphic" in2="effect1_dropShadow_125_33" result="shape"/>
</filter>
</defs>
</svg>
